<svg width="40" height="40" viewBox="0 0 40 40" fill="none" xmlns="http://www.w3.org/2000/svg">
<circle cx="20" cy="20" r="20" fill="black"/>
<path d="M27.7602 19.6567L22.3432 14.2395C22.1886 14.0849 21.9825 14 21.7627 14C21.5427 14 21.3368 14.085 21.1821 14.2395L20.6903 14.7315C20.5358 14.8858 20.4507 15.0921 20.4507 15.3119C20.4507 15.5317 20.5358 15.7449 20.6903 15.8993L23.8505 19.0664H13.8104C13.3577 19.0664 13 19.4208 13 19.8736V20.5691C13 21.0219 13.3577 21.412 13.8104 21.412H23.8864L20.6904 24.5969C20.5359 24.7515 20.4508 24.9521 20.4508 25.172C20.4508 25.3916 20.5359 25.5952 20.6904 25.7497L21.1822 26.24C21.3369 26.3947 21.5429 26.4789 21.7629 26.4789C21.9826 26.4789 22.1887 26.3936 22.3433 26.2389L27.7604 20.8219C27.9154 20.6668 28.0006 20.4597 28 20.2396C28.0005 20.0187 27.9154 19.8115 27.7602 19.6567Z" fill="white"/>
</svg>
