<svg width="8" height="8" viewBox="0 0 8 8" fill="none" xmlns="http://www.w3.org/2000/svg">
<path d="M7.87212 3.68925L4.98304 0.800102C4.90057 0.717631 4.79065 0.672363 4.67345 0.672363C4.55612 0.672363 4.44627 0.717696 4.3638 0.800102L4.10149 1.06247C4.01908 1.14481 3.97369 1.2548 3.97369 1.37207C3.97369 1.48927 4.01908 1.60296 4.10149 1.6853L5.78694 3.37446L0.432191 3.37446C0.190762 3.37446 0 3.56346 0 3.80496L0 4.17588C0 4.41737 0.190762 4.62544 0.432191 4.62544L5.80606 4.62544L4.10155 6.32403C4.01915 6.4065 3.97375 6.51349 3.97375 6.63076C3.97375 6.74789 4.01915 6.85644 4.10155 6.93885L4.36386 7.20038C4.44633 7.28285 4.55618 7.32779 4.67352 7.32779C4.79072 7.32779 4.90064 7.28226 4.98311 7.19979L7.87219 4.31071C7.95485 4.22798 8.00031 4.11754 7.99999 4.00014C8.00025 3.88235 7.95485 3.77185 7.87212 3.68925Z" fill="#BDBDBD"/>
</svg>
