<svg width="30" height="30" viewBox="0 0 30 30" fill="none" xmlns="http://www.w3.org/2000/svg">
<circle cx="15" cy="15" r="15" fill="#F2F2F2"/>
<path d="M19.2704 11.4506C18.7772 10.891 18.0929 10.5828 17.3438 10.5828C16.2901 10.5828 15.623 11.2121 15.2489 11.74C15.1519 11.877 15.0693 12.0143 15 12.1436C14.9307 12.0143 14.8481 11.877 14.7511 11.74C14.377 11.2121 13.7099 10.5828 12.6562 10.5828C11.9071 10.5828 11.2228 10.891 10.7296 11.4506C10.2591 11.9845 10 12.6995 10 13.4639C10 14.296 10.3249 15.0699 11.0224 15.8995C11.6457 16.6409 12.5426 17.4051 13.5811 18.29C13.968 18.6198 14.3682 18.9608 14.7942 19.3336L14.807 19.3448C14.8623 19.3931 14.9311 19.4173 15 19.4173C15.0689 19.4173 15.1377 19.3931 15.193 19.3448L15.2058 19.3336C15.6318 18.9608 16.032 18.6198 16.419 18.29C17.4574 17.4051 18.3543 16.6409 18.9776 15.8995C19.6751 15.0699 20 14.296 20 13.4639C20 12.6995 19.7409 11.9845 19.2704 11.4506ZM16.0389 17.8441C15.7053 18.1283 15.362 18.4209 15 18.7356C14.638 18.4209 14.2947 18.1283 13.961 17.844C11.9286 16.1121 10.5859 14.968 10.5859 13.4639C10.5859 12.8422 10.7931 12.2648 11.1692 11.838C11.5496 11.4064 12.0777 11.1687 12.6562 11.1687C13.4596 11.1687 13.9788 11.6636 14.273 12.0787C14.5368 12.4511 14.6745 12.8264 14.7214 12.9705C14.7607 13.0911 14.8732 13.1727 15 13.1727C15.1268 13.1727 15.2393 13.0911 15.2786 12.9705C15.3255 12.8264 15.4632 12.4511 15.727 12.0787C16.0212 11.6636 16.5404 11.1687 17.3438 11.1687C17.9223 11.1687 18.4504 11.4064 18.8308 11.838C19.2069 12.2648 19.4141 12.8422 19.4141 13.4639C19.4141 14.968 18.0714 16.1121 16.0389 17.8441Z" fill="black"/>
</svg>
