<svg width="9" height="13" viewBox="0 0 9 13" fill="none" xmlns="http://www.w3.org/2000/svg">
<path d="M4.816 12.208C5.968 12.208 6.896 11.92 7.616 11.344C8.336 10.752 8.688 9.968 8.688 8.992C8.688 8.288 8.528 7.712 8.128 7.312C7.856 6.992 7.712 6.816 7.264 6.576C6.832 6.336 6.704 6.256 6.144 6.048C5.872 5.936 5.68 5.872 5.552 5.824L4.896 5.616C4.032 5.344 3.424 5.072 3.072 4.816C2.72 4.56 2.544 4.192 2.544 3.696C2.544 2.672 3.36 2.032 4.576 2.032C5.792 2.032 6.64 2.608 7.12 3.76L8.368 3.04C7.712 1.568 6.352 0.591999 4.576 0.591999C3.6 0.591999 2.768 0.879999 2.08 1.456C1.392 2.016 1.056 2.784 1.056 3.76C1.056 4.576 1.392 5.232 1.76 5.632C1.936 5.824 2.208 6.016 2.576 6.208C2.944 6.384 3.264 6.528 3.504 6.624L4.576 6.976C5.52 7.28 6.208 7.552 6.608 7.824C7.008 8.096 7.216 8.496 7.216 9.024C7.216 10.064 6.384 10.752 4.848 10.752C3.296 10.752 2.288 10.08 1.856 8.72L0.576 9.456C1.168 11.168 2.72 12.208 4.816 12.208Z" fill="black"/>
</svg>
