<svg width="18" height="13" viewBox="0 0 18 13" fill="none" xmlns="http://www.w3.org/2000/svg">
<path d="M5.568 6.224L8.944 0.799999H7.264L4.72 4.88L2.176 0.799999H0.496L3.888 6.24L0.288 12H1.968L4.72 7.584L7.472 12H9.168L5.568 6.224ZM13.7535 12.208C14.9055 12.208 15.8335 11.92 16.5535 11.344C17.2735 10.752 17.6255 9.968 17.6255 8.992C17.6255 8.288 17.4655 7.712 17.0655 7.312C16.7935 6.992 16.6495 6.816 16.2015 6.576C15.7695 6.336 15.6415 6.256 15.0815 6.048C14.8095 5.936 14.6175 5.872 14.4895 5.824L13.8335 5.616C12.9695 5.344 12.3615 5.072 12.0095 4.816C11.6575 4.56 11.4815 4.192 11.4815 3.696C11.4815 2.672 12.2975 2.032 13.5135 2.032C14.7295 2.032 15.5775 2.608 16.0575 3.76L17.3055 3.04C16.6495 1.568 15.2895 0.591999 13.5135 0.591999C12.5375 0.591999 11.7055 0.879999 11.0175 1.456C10.3295 2.016 9.9935 2.784 9.9935 3.76C9.9935 4.576 10.3295 5.232 10.6975 5.632C10.8735 5.824 11.1455 6.016 11.5135 6.208C11.8815 6.384 12.2015 6.528 12.4415 6.624L13.5135 6.976C14.4575 7.28 15.1455 7.552 15.5455 7.824C15.9455 8.096 16.1535 8.496 16.1535 9.024C16.1535 10.064 15.3215 10.752 13.7855 10.752C12.2335 10.752 11.2255 10.08 10.7935 8.72L9.5135 9.456C10.1055 11.168 11.6575 12.208 13.7535 12.208Z" fill="black"/>
</svg>
